<svg xmlns="http://www.w3.org/2000/svg" viewBox="0 0 256 256">
  <rect width="256" height="256" fill="#0a4d5c"/>
  <path d="M128 40 Q100 60 100 80 Q100 100 128 120 Q156 100 156 80 Q156 60 128 40 Z" fill="#00d4d4" opacity="0.3"/>
  <path d="M128 120 Q100 140 100 160 Q100 180 128 200 Q156 180 156 160 Q156 140 128 120 Z" fill="#00d4d4" opacity="0.3"/>
  <ellipse cx="100" cy="80" rx="12" ry="8" fill="#00ffff"/>
  <ellipse cx="156" cy="80" rx="12" ry="8" fill="#00ffff"/>
  <ellipse cx="100" cy="120" rx="12" ry="8" fill="#20e5e5"/>
  <ellipse cx="156" cy="120" rx="12" ry="8" fill="#20e5e5"/>
  <ellipse cx="100" cy="160" rx="12" ry="8" fill="#00ffff"/>
  <ellipse cx="156" cy="160" rx="12" ry="8" fill="#00ffff"/>
  <ellipse cx="100" cy="200" rx="12" ry="8" fill="#20e5e5"/>
  <ellipse cx="156" cy="200" rx="12" ry="8" fill="#20e5e5"/>
  <line x1="100" y1="80" x2="156" y2="80" stroke="#00d4d4" stroke-width="2"/>
  <line x1="100" y1="120" x2="156" y2="120" stroke="#00d4d4" stroke-width="2"/>
  <line x1="100" y1="160" x2="156" y2="160" stroke="#00d4d4" stroke-width="2"/>
  <line x1="100" y1="200" x2="156" y2="200" stroke="#00d4d4" stroke-width="2"/>
  <path d="M100 40 Q100 60 100 80 Q100 100 100 120 Q100 140 100 160 Q100 180 100 200 Q100 220 100 240" stroke="#00ffff" stroke-width="4" fill="none"/>
  <path d="M156 40 Q156 60 156 80 Q156 100 156 120 Q156 140 156 160 Q156 180 156 200 Q156 220 156 240" stroke="#00ffff" stroke-width="4" fill="none"/>
</svg>